<svg width="133" height="133" viewBox="0 0 133 133" fill="none" xmlns="http://www.w3.org/2000/svg">
<g filter="url(#filter0_d_26_8623)">
<circle cx="-0.5" cy="-0.5" r="83.5" fill="#0B132B"/>
</g>
<path d="M50.932 37.2866C50.6942 36.7769 50.2864 36.4371 49.7767 36.3352C49.233 36.1992 48.6553 36.3691 48.2136 36.7429C48.1796 36.7769 48.1456 36.8109 48.0776 36.8449C48.0437 36.8789 48.0437 36.8789 48.0097 36.9128C48.0097 36.9128 47.9757 36.9128 47.9757 36.9468C45.3592 38.9517 42.5388 39.8012 39.3446 39.5633C37.6116 39.4274 35.9806 38.9517 34.5874 38.1361C31.1553 36.1992 29.0485 33.2769 28.3689 29.4371C27.9611 27.2284 28.199 24.9857 29.0485 22.8109C29.4563 21.7915 30.034 20.7721 30.8155 19.7526C31.3252 19.107 31.3252 18.3594 30.8835 17.7138C30.4757 17.1361 29.6942 16.8983 28.9806 17.1022C24.9029 18.2915 21.6408 20.6022 19.2621 23.9662C16.5437 27.84 15.4903 32.1556 16.1359 36.7769C16.7815 41.4323 18.9903 45.2721 22.6942 48.1604C25.9903 50.709 29.5922 52.0002 33.5679 52.0002C34.6553 52.0002 35.7767 51.8983 36.932 51.6944C39.1068 51.3206 41.2136 50.5051 43.1505 49.2818C46.4126 47.175 48.7912 44.3206 50.1844 40.7526C50.3543 40.2769 50.5243 39.7672 50.6602 39.2575C50.7621 38.9517 50.8301 38.6798 50.932 38.374C50.966 38.306 50.966 38.2721 50.966 38.2041V37.4905C51 37.4565 50.966 37.3546 50.932 37.2866ZM29.6942 38.5099C34.4514 42.8255 39.9223 43.9808 46.0048 41.942C43.4903 45.7818 38.4272 49.2138 32.1747 48.5002C25.2087 47.6847 19.7378 41.84 19.432 34.84C19.1602 28.5536 22.7961 24.1361 25.8204 22.1992C23.9175 28.3497 25.2087 33.8206 29.6942 38.5099Z" fill="white"/>
<defs>
<filter id="filter0_d_26_8623" x="-134" y="-134" width="267" height="267" filterUnits="userSpaceOnUse" color-interpolation-filters="sRGB">
<feFlood flood-opacity="0" result="BackgroundImageFix"/>
<feColorMatrix in="SourceAlpha" type="matrix" values="0 0 0 0 0 0 0 0 0 0 0 0 0 0 0 0 0 0 127 0" result="hardAlpha"/>
<feOffset/>
<feGaussianBlur stdDeviation="25"/>
<feComposite in2="hardAlpha" operator="out"/>
<feColorMatrix type="matrix" values="0 0 0 0 0.0431373 0 0 0 0 0.0745098 0 0 0 0 0.168627 0 0 0 1 0"/>
<feBlend mode="normal" in2="BackgroundImageFix" result="effect1_dropShadow_26_8623"/>
<feBlend mode="normal" in="SourceGraphic" in2="effect1_dropShadow_26_8623" result="shape"/>
</filter>
</defs>
</svg>
